<svg xmlns="http://www.w3.org/2000/svg" version="1.1" xmlns:xlink="http://www.w3.org/1999/xlink" xmlns:svgjs="http://svgjs.com/svgjs" width="1440" height="560" preserveAspectRatio="none" viewBox="0 0 1440 560"><g mask="url(&quot;#SvgjsMask1021&quot;)" fill="none"><rect width="1440" height="560" x="0" y="0" fill="rgba(21, 67, 96, 1)"></rect><path d="M0,438.758C85.784,430.302,173.422,429.173,247.677,385.394C323.575,340.647,390.535,274.774,419.36,191.515C447.17,111.188,412.234,26.603,401.067,-57.665C389.755,-143.026,393.661,-230.108,353.401,-306.224C306.358,-395.163,249.263,-492.128,154.056,-524.667C58.228,-557.419,-51.085,-524.257,-139.367,-474.64C-218.748,-430.026,-243.962,-331.758,-306.666,-265.728C-373.624,-195.218,-496.803,-169.272,-519.204,-74.65C-541.459,19.358,-455.09,101.631,-414.376,189.239C-373.976,276.171,-363.304,388.078,-281.182,437.528C-199.227,486.878,-95.205,448.143,0,438.758" fill="#0f2f43"></path><path d="M1440 1033.1480000000001C1554.6970000000001 1035.682 1668.7930000000001 1125.483 1773.9769999999999 1079.6779999999999 1880.012 1033.502 1917.4 905.024 1970.339 802.198 2025.806 694.462 2124.0280000000002 582.787 2089.614 466.6 2054.684 348.66999999999996 1888.189 334.31600000000003 1804.939 243.779 1725.475 157.36 1720.179 11.56899999999996 1618.019-46.277000000000044 1510.621-107.08900000000006 1373.867-103.27300000000002 1255.859-67.12599999999998 1138.504-31.178999999999974 1025.809 43.269000000000005 969.55 152.353 916.572 255.075 977.203 376.892 967.4649999999999 492.06 958.5129999999999 597.922 888.249 696.982 914.799 799.851 943.076 909.409 1011.9680000000001 1019.197 1115.373 1065.13 1216.798 1110.183 1329.046 1030.6970000000001 1440 1033.1480000000001" fill="#1b577d"></path></g><defs><mask id="SvgjsMask1021"><rect width="1440" height="560" fill="#ffffff"></rect></mask></defs></svg>